<?xml version="1.0" standalone="no"?>
<!DOCTYPE svg PUBLIC "-//W3C//DTD SVG 20010904//EN"
 "http://www.w3.org/TR/2001/REC-SVG-20010904/DTD/svg10.dtd">
<svg version="1.0" xmlns="http://www.w3.org/2000/svg"
 width="609.000000pt" height="215.000000pt" viewBox="0 0 609.000000 215.000000"
 preserveAspectRatio="xMidYMid meet">
<metadata>
Created by potrace 1.16, written by Peter Selinger 2001-2019
</metadata>
<g transform="translate(0.000000,215.000000) scale(0.100000,-0.100000)"
fill="#000000" stroke="none">
<path d="M2370 1893 c-42 -15 -115 -56 -127 -71 -8 -9 -27 -41 -44 -69 -25
-44 -36 -53 -58 -53 -22 0 -49 -22 -126 -99 -54 -55 -101 -104 -105 -111 -4
-6 -58 -63 -119 -125 l-112 -112 -287 -6 c-300 -5 -403 -17 -538 -58 -192 -59
-310 -168 -321 -296 -7 -89 22 -138 109 -182 59 -30 78 -35 165 -39 116 -5
186 6 290 48 155 62 321 180 509 362 l111 108 121 0 c66 0 123 -4 126 -9 4 -5
-5 -56 -20 -113 -33 -136 -43 -292 -20 -336 20 -38 43 -52 88 -52 36 0 128 41
149 66 19 23 1 30 -34 11 -54 -28 -81 -35 -104 -26 -21 8 -23 15 -23 81 0 72
52 319 72 345 7 8 17 9 34 2 38 -14 84 -11 84 5 0 15 -49 36 -83 36 -27 0 -20
29 43 176 64 148 123 257 212 391 57 85 68 107 58 118 -13 16 -24 17 -50 8z
m-286 -375 c-9 -18 -36 -89 -60 -158 l-43 -125 -73 3 c-62 3 -87 6 -128 11 -3
1 67 73 155 161 88 88 161 156 163 151 2 -5 -5 -25 -14 -43z m-494 -336 c0
-12 -141 -129 -247 -205 -231 -166 -404 -237 -578 -237 -117 0 -185 36 -185
97 0 41 24 97 56 133 94 104 274 167 584 205 120 15 370 19 370 7z"/>
<path d="M3000 1883 c-183 -64 -479 -392 -630 -698 -81 -166 -95 -265 -46
-350 37 -66 66 -80 159 -80 96 1 150 22 257 104 63 48 65 49 73 28 24 -62 42
-86 80 -108 35 -20 56 -24 122 -24 113 0 170 30 303 158 56 55 102 104 102
109 0 14 73 98 81 93 8 -5 49 -91 49 -103 0 -4 -33 -35 -72 -67 -154 -125
-216 -195 -174 -195 15 0 56 31 190 143 44 36 82 64 86 62 4 -2 24 -33 44 -67
20 -35 49 -71 63 -82 56 -41 149 -11 257 85 30 27 56 49 58 49 3 0 0 -24 -5
-52 -19 -103 32 -158 147 -158 66 0 103 14 184 69 l59 40 24 -25 c33 -35 134
-82 204 -95 50 -10 70 -9 115 4 73 22 115 49 130 84 11 25 22 32 69 41 93 20
156 55 215 119 44 49 22 57 -36 13 -61 -46 -153 -83 -194 -78 -27 3 -29 7 -35
56 -4 29 -25 91 -49 140 -65 138 -49 172 82 172 71 0 83 7 74 44 -12 48 -112
62 -181 25 -56 -30 -94 -67 -200 -199 -124 -154 -124 -155 -170 -139 -55 20
-70 6 -70 -71 -1 -71 -9 -81 -110 -131 -104 -50 -155 -31 -155 59 0 56 27 117
81 189 21 29 39 63 39 77 0 26 -32 56 -61 56 -22 0 -73 -58 -103 -118 -28 -55
-121 -147 -171 -167 -80 -34 -131 -13 -178 73 l-28 51 43 29 c24 16 87 55 140
86 102 60 115 70 98 81 -13 8 -77 -22 -203 -95 -48 -27 -91 -50 -95 -50 -4 0
-23 28 -42 62 -19 33 -54 81 -78 105 -37 39 -47 44 -80 41 -41 -3 -39 2 -26
-99 8 -63 -7 -89 -125 -218 -116 -126 -175 -162 -266 -163 -76 -1 -106 27
-112 104 l-5 53 76 38 c94 48 159 97 197 149 54 75 30 139 -51 137 -51 -1 -91
-18 -160 -68 -68 -50 -118 -112 -155 -194 -28 -60 -98 -122 -194 -173 -68 -35
-158 -44 -196 -20 -49 32 -57 149 -12 179 44 29 235 191 346 295 268 250 413
454 381 537 -11 28 -65 65 -95 64 -11 0 -40 -7 -65 -16z m56 -48 c38 -97 -259
-506 -540 -744 -48 -41 -89 -71 -93 -67 -17 17 110 265 215 416 73 106 212
279 263 327 78 72 143 101 155 68z m100 -629 c13 -33 -63 -122 -148 -175 -65
-39 -75 -25 -30 44 59 91 114 145 146 145 15 0 29 -6 32 -14z m1583 -155 c55
-154 55 -155 -14 -147 -30 3 -91 18 -135 32 l-81 25 32 37 c100 114 152 172
155 169 1 -1 21 -54 43 -116z m-181 -163 c28 -10 86 -21 127 -25 42 -3 78 -10
81 -15 4 -5 -4 -20 -16 -33 -64 -68 -211 -52 -260 28 -26 42 -27 82 -2 72 9
-5 41 -16 70 -27z"/>
<path d="M4231 1384 c-12 -15 -21 -35 -21 -46 0 -26 44 -68 73 -68 31 0 67 39
67 73 0 63 -80 90 -119 41z"/>
</g>
</svg>
